# xmcd
#
# Track frame offsets:
#	150
#	13697
#	31523
#	48273
#	66635
#	82460
#	102613
#	118837
#	134525
#	151991
#	169212
#	183457
#	199711
#	217662
#	235517
#	250794
#	266481
#	281179
#	295798
#
# Disc length: 4158 seconds
# Revision: 0
# Processed by: cddbd v1.5.2PL0 Copyright (c) Steve Scherf et al.
# Submitted via: dBpowerAMP V12.0
#
DISCID=19103c13
DTITLE=Various Artist - Country Radio May 2007
DYEAR=2007
DGENRE=Country
TTITLE0=Terri Clark - Dirty Girl
TTITLE1=Doc Walker - Driving With The Brakes On
TTITLE2=Carolyn Dawn Johnson - Into You
TTITLE3=Bon Jovi - Make A Memory (Country Version)
TTITLE4=Jessie Farrell - Let's Talk About Love
TTITLE5=Jim Cuddy - Married Again
TTITLE6=Charlie Major - Better World
TTITLE7=Bucky Covington - A Different World
TTITLE8=Wreckers The - Tennessee
TTITLE9=Jason Michael Carroll - Livin Our Love Song
TTITLE10=Lee Brice - She Ain't Right
TTITLE11=Trent Tomlinson - Just Might Have Her Radio On
TTITLE12=Vince Gill - What You Give Away
TTITLE13=Jamie O'Neal - God Don't Make Mistakes
TTITLE14=Van Zant - That Scares Me
TTITLE15=Jimmy Rankin - Got To Leave Louisiana
TTITLE16=Jack Ingram - Measure Of A Man
TTITLE17=Amy Dalley - Good Kind Of Crazy
TTITLE18=Caly Walker - Fall
EXTD=
EXTT0=
EXTT1=
EXTT2=
EXTT3=
EXTT4=
EXTT5=
EXTT6=
EXTT7=
EXTT8=
EXTT9=
EXTT10=
EXTT11=
EXTT12=
EXTT13=
EXTT14=
EXTT15=
EXTT16=
EXTT17=
EXTT18=
PLAYORDER=
